<?xml version="1.0" standalone="no"?>
<!DOCTYPE svg PUBLIC "-//W3C//DTD SVG 1.1//EN"
"http://www.w3.org/Graphics/SVG/1.1/DTD/svg11.dtd">

<svg width="350" height="186" view_box="0 0 350 186"
xmlns="http://www.w3.org/2000/svg"
xmlns:link="http://www.w3.org/1999/xlink">\n\n<desc>Généré par Mocodo 2.3.7 le Mon, 05 Sep 2022 04:21:39</desc>

<rect id="frame" x="0" y="0" width="350" height="186" fill="#f7f7f7" stroke="none" stroke-width="0"/>

<!-- Association Est produit par -->
<line x1="52" y1="51" x2="180" y2="51" stroke="#e08214" stroke-width="2"/>
<text x="100" y="68.0" fill="#542788" font-family="Verdana" font-size="12">1,1</text>
<line x1="303" y1="51" x2="180" y2="51" stroke="#e08214" stroke-width="2"/>
<text x="238" y="68.0" fill="#542788" font-family="Verdana" font-size="12">0,N</text>
<g id="association-Est produit par">
	<path d="M 219 26 a 14 14 90 0 1 14 14 V 51 h -106 V 40 a 14 14 90 0 1 14 -14" fill="#fdb863" stroke="#fdb863" stroke-width="0"/>
	<path d="M 233 51.0 v 11 a 14 14 90 0 1 -14 14 H 141 a 14 14 90 0 1 -14 -14 V 51.0 H 106" fill="#fee0b6" stroke="#fee0b6" stroke-width="0"/>
	<rect x="127" y="26" width="106" height="50" fill="none" rx="14" stroke="#e08214" stroke-width="2"/>
	<line x1="127" y1="51" x2="233" y2="51" stroke="#e08214" stroke-width="1"/>
	<text x="134" y="43.7" fill="#000000" font-family="Verdana" font-size="12">Est produit par</text>
</g>

<!-- Association Y participe -->
<line x1="52" y1="51" x2="52" y2="143" stroke="#e08214" stroke-width="2"/>
<text x="57.0" y="110" fill="#542788" font-family="Verdana" font-size="12">1,1</text>
<line x1="180" y1="143" x2="52" y2="143" stroke="#e08214" stroke-width="2"/>
<text x="110" y="160.0" fill="#542788" font-family="Verdana" font-size="12">0,N</text>
<g id="association-Y participe">
	<path d="M 78 118 a 14 14 90 0 1 14 14 V 143 h -80 V 132 a 14 14 90 0 1 14 -14" fill="#fdb863" stroke="#fdb863" stroke-width="0"/>
	<path d="M 92 143.0 v 11 a 14 14 90 0 1 -14 14 H 26 a 14 14 90 0 1 -14 -14 V 143.0 H 80" fill="#fee0b6" stroke="#fee0b6" stroke-width="0"/>
	<rect x="12" y="118" width="80" height="50" fill="none" rx="14" stroke="#e08214" stroke-width="2"/>
	<line x1="12" y1="143" x2="92" y2="143" stroke="#e08214" stroke-width="1"/>
	<text x="19" y="135.7" fill="#000000" font-family="Verdana" font-size="12">Y participe</text>
</g>

<!-- Entity Artistes -->
<g id="entity-Artistes">
	<g id="frame-Artistes">
		<rect x="137" y="109" width="86" height="25" fill="#b2abd2" stroke="#b2abd2" stroke-width="0"/>
		<rect x="137" y="134.0" width="86" height="43" fill="#d8daeb" stroke="#d8daeb" stroke-width="0"/>
		<rect x="137" y="109" width="86" height="68" fill="none" stroke="#8073ac" stroke-width="2"/>
		<line x1="137" y1="134" x2="223" y2="134" stroke="#8073ac" stroke-width="1"/>
	</g>
	<text x="156" y="126.7" fill="#000000" font-family="Verdana" font-size="12">Artistes</text>
	<text x="142" y="151.8" fill="#000000" font-family="Verdana" font-size="12">code_artiste</text>
	<line x1="142" y1="154" x2="217" y2="154" stroke="#000000" stroke-width="1"/>
	<text x="142" y="168.8" fill="#000000" font-family="Verdana" font-size="12">nom_artiste</text>
</g>

<!-- Entity Labels -->
<g id="entity-Labels">
	<g id="frame-Labels">
		<rect x="265" y="17" width="76" height="25" fill="#b2abd2" stroke="#b2abd2" stroke-width="0"/>
		<rect x="265" y="42.0" width="76" height="43" fill="#d8daeb" stroke="#d8daeb" stroke-width="0"/>
		<rect x="265" y="17" width="76" height="68" fill="none" stroke="#8073ac" stroke-width="2"/>
		<line x1="265" y1="42" x2="341" y2="42" stroke="#8073ac" stroke-width="1"/>
	</g>
	<text x="283" y="34.7" fill="#000000" font-family="Verdana" font-size="12">Labels</text>
	<text x="270" y="59.8" fill="#000000" font-family="Verdana" font-size="12">code_label</text>
	<line x1="270" y1="62" x2="335" y2="62" stroke="#000000" stroke-width="1"/>
	<text x="270" y="76.8" fill="#000000" font-family="Verdana" font-size="12">nom_label</text>
</g>

<!-- Entity Disques -->
<g id="entity-Disques">
	<g id="frame-Disques">
		<rect x="9" y="9" width="86" height="25" fill="#b2abd2" stroke="#b2abd2" stroke-width="0"/>
		<rect x="9" y="34.0" width="86" height="59" fill="#d8daeb" stroke="#d8daeb" stroke-width="0"/>
		<rect x="9" y="9" width="86" height="84" fill="none" stroke="#8073ac" stroke-width="2"/>
		<line x1="9" y1="34" x2="95" y2="34" stroke="#8073ac" stroke-width="1"/>
	</g>
	<text x="28" y="26.7" fill="#000000" font-family="Verdana" font-size="12">Disques</text>
	<text x="14" y="51.8" fill="#000000" font-family="Verdana" font-size="12">code_disque</text>
	<line x1="14" y1="54" x2="90" y2="54" stroke="#000000" stroke-width="1"/>
	<text x="14" y="68.8" fill="#000000" font-family="Verdana" font-size="12">titre</text>
	<text x="14" y="85.8" fill="#000000" font-family="Verdana" font-size="12">année</text>
</g>
</svg>