<?xml version="1.0" standalone="no"?>
<!DOCTYPE svg PUBLIC "-//W3C//DTD SVG 1.1//EN"
"http://www.w3.org/Graphics/SVG/1.1/DTD/svg11.dtd">

<svg width="504" height="472" view_box="0 0 504 472"
xmlns="http://www.w3.org/2000/svg"
xmlns:link="http://www.w3.org/1999/xlink">\n\n<desc>Généré par Mocodo 2.3.7 le Mon, 05 Sep 2022 05:58:52</desc>

<rect id="frame" x="0" y="0" width="504" height="472" fill="#f7f7f7" stroke="none" stroke-width="0"/>

<!-- Association Appartient à ... -->
<line x1="301" y1="228" x2="301" y2="127" stroke="#d6604d" stroke-width="2"/>
<text x="306.0" y="169" fill="#2166ac" font-family="Verdana" font-size="12">1,1</text>
<line x1="301" y1="43" x2="301" y2="127" stroke="#d6604d" stroke-width="2"/>
<text x="306.0" y="94" fill="#2166ac" font-family="Verdana" font-size="12">0,N</text>
<g id="association-Appartient à ...">
	<path d="M 341 102 a 14 14 90 0 1 14 14 V 127 h -108 V 116 a 14 14 90 0 1 14 -14" fill="#f4a582" stroke="#f4a582" stroke-width="0"/>
	<path d="M 355 127.0 v 11 a 14 14 90 0 1 -14 14 H 261 a 14 14 90 0 1 -14 -14 V 127.0 H 108" fill="#fddbc7" stroke="#fddbc7" stroke-width="0"/>
	<rect x="247" y="102" width="108" height="50" fill="none" rx="14" stroke="#d6604d" stroke-width="2"/>
	<line x1="247" y1="127" x2="355" y2="127" stroke="#d6604d" stroke-width="1"/>
	<text x="254" y="119.7" fill="#000000" font-family="Verdana" font-size="12">Appartient à ...</text>
</g>

<!-- Association Construit par ... -->
<line x1="301" y1="421" x2="439" y2="421" stroke="#d6604d" stroke-width="2"/>
<text x="356" y="438.0" fill="#2166ac" font-family="Verdana" font-size="12">1,1</text>
<line x1="439" y1="329" x2="439" y2="421" stroke="#d6604d" stroke-width="2"/>
<text x="444.0" y="380" fill="#2166ac" font-family="Verdana" font-size="12">0,N</text>
<g id="association-Construit par ...">
	<path d="M 481 396 a 14 14 90 0 1 14 14 V 421 h -112 V 410 a 14 14 90 0 1 14 -14" fill="#f4a582" stroke="#f4a582" stroke-width="0"/>
	<path d="M 495 421.0 v 11 a 14 14 90 0 1 -14 14 H 397 a 14 14 90 0 1 -14 -14 V 421.0 H 112" fill="#fddbc7" stroke="#fddbc7" stroke-width="0"/>
	<rect x="383" y="396" width="112" height="50" fill="none" rx="14" stroke="#d6604d" stroke-width="2"/>
	<line x1="383" y1="421" x2="495" y2="421" stroke="#d6604d" stroke-width="1"/>
	<text x="390" y="413.7" fill="#000000" font-family="Verdana" font-size="12">Construit par ...</text>
</g>

<!-- Association Convient à ... -->
<line x1="301" y1="228" x2="301" y2="329" stroke="#d6604d" stroke-width="2"/>
<text x="306.0" y="296" fill="#2166ac" font-family="Verdana" font-size="12">0,N</text>
<line x1="301" y1="421" x2="301" y2="329" stroke="#d6604d" stroke-width="2"/>
<text x="306.0" y="371" fill="#2166ac" font-family="Verdana" font-size="12">0,N</text>
<g id="association-Convient à ...">
	<path d="M 336 304 a 14 14 90 0 1 14 14 V 329 h -98 V 318 a 14 14 90 0 1 14 -14" fill="#f4a582" stroke="#f4a582" stroke-width="0"/>
	<path d="M 350 329.0 v 11 a 14 14 90 0 1 -14 14 H 266 a 14 14 90 0 1 -14 -14 V 329.0 H 98" fill="#fddbc7" stroke="#fddbc7" stroke-width="0"/>
	<rect x="252" y="304" width="98" height="50" fill="none" rx="14" stroke="#d6604d" stroke-width="2"/>
	<line x1="252" y1="329" x2="350" y2="329" stroke="#d6604d" stroke-width="1"/>
	<text x="259" y="321.7" fill="#000000" font-family="Verdana" font-size="12">Convient à ...</text>
</g>

<!-- Association Relève de ... -->
<line x1="49" y1="228" x2="167" y2="228" stroke="#d6604d" stroke-width="2"/>
<text x="94" y="245.0" fill="#2166ac" font-family="Verdana" font-size="12">1,1</text>
<line x1="301" y1="228" x2="167" y2="228" stroke="#d6604d" stroke-width="2"/>
<text x="218" y="245.0" fill="#2166ac" font-family="Verdana" font-size="12">0,N</text>
<g id="association-Relève de ...">
	<path d="M 199 203 a 14 14 90 0 1 14 14 V 228 h -92 V 217 a 14 14 90 0 1 14 -14" fill="#f4a582" stroke="#f4a582" stroke-width="0"/>
	<path d="M 213 228.0 v 11 a 14 14 90 0 1 -14 14 H 135 a 14 14 90 0 1 -14 -14 V 228.0 H 92" fill="#fddbc7" stroke="#fddbc7" stroke-width="0"/>
	<rect x="121" y="203" width="92" height="50" fill="none" rx="14" stroke="#d6604d" stroke-width="2"/>
	<line x1="121" y1="228" x2="213" y2="228" stroke="#d6604d" stroke-width="1"/>
	<text x="128" y="220.7" fill="#000000" font-family="Verdana" font-size="12">Relève de ...</text>
</g>

<!-- Entity Marques -->
<g id="entity-Marques">
	<g id="frame-Marques">
		<rect x="392" y="295" width="94" height="25" fill="#92c5de" stroke="#92c5de" stroke-width="0"/>
		<rect x="392" y="320.0" width="94" height="43" fill="#d1e5f0" stroke="#d1e5f0" stroke-width="0"/>
		<rect x="392" y="295" width="94" height="68" fill="none" stroke="#4393c3" stroke-width="2"/>
		<line x1="392" y1="320" x2="486" y2="320" stroke="#4393c3" stroke-width="1"/>
	</g>
	<text x="413" y="312.7" fill="#000000" font-family="Verdana" font-size="12">Marques</text>
	<text x="397" y="337.8" fill="#000000" font-family="Verdana" font-size="12">code_marque</text>
	<line x1="397" y1="340" x2="480" y2="340" stroke="#000000" stroke-width="1"/>
	<text x="397" y="354.8" fill="#000000" font-family="Verdana" font-size="12">nom_marque</text>
</g>

<!-- Entity Catégories -->
<g id="entity-Catégories">
	<g id="frame-Catégories">
		<rect x="243" y="9" width="116" height="25" fill="#92c5de" stroke="#92c5de" stroke-width="0"/>
		<rect x="243" y="34.0" width="116" height="43" fill="#d1e5f0" stroke="#d1e5f0" stroke-width="0"/>
		<rect x="243" y="9" width="116" height="68" fill="none" stroke="#4393c3" stroke-width="2"/>
		<line x1="243" y1="34" x2="359" y2="34" stroke="#4393c3" stroke-width="1"/>
	</g>
	<text x="268" y="26.7" fill="#000000" font-family="Verdana" font-size="12">Catégories</text>
	<text x="248" y="51.8" fill="#000000" font-family="Verdana" font-size="12">code_catégorie</text>
	<line x1="248" y1="54" x2="341" y2="54" stroke="#000000" stroke-width="1"/>
	<text x="248" y="68.8" fill="#000000" font-family="Verdana" font-size="12">intitulé_catégorie</text>
</g>

<!-- Entity Modèles -->
<g id="entity-Modèles">
	<g id="frame-Modèles">
		<rect x="251" y="379" width="100" height="25" fill="#92c5de" stroke="#92c5de" stroke-width="0"/>
		<rect x="251" y="404.0" width="100" height="59" fill="#d1e5f0" stroke="#d1e5f0" stroke-width="0"/>
		<rect x="251" y="379" width="100" height="84" fill="none" stroke="#4393c3" stroke-width="2"/>
		<line x1="251" y1="404" x2="351" y2="404" stroke="#4393c3" stroke-width="1"/>
	</g>
	<text x="276" y="396.7" fill="#000000" font-family="Verdana" font-size="12">Modèles</text>
	<text x="256" y="421.8" fill="#000000" font-family="Verdana" font-size="12">code_modèle</text>
	<line x1="256" y1="424" x2="337" y2="424" stroke="#000000" stroke-width="1"/>
	<text x="256" y="438.8" fill="#000000" font-family="Verdana" font-size="12">nom_modèle</text>
	<text x="256" y="455.8" fill="#000000" font-family="Verdana" font-size="12">année_modèle</text>
</g>

<!-- Entity Pièces -->
<g id="entity-Pièces">
	<g id="frame-Pièces">
		<rect x="9" y="177" width="80" height="25" fill="#92c5de" stroke="#92c5de" stroke-width="0"/>
		<rect x="9" y="202.0" width="80" height="77" fill="#d1e5f0" stroke="#d1e5f0" stroke-width="0"/>
		<rect x="9" y="177" width="80" height="102" fill="none" stroke="#4393c3" stroke-width="2"/>
		<line x1="9" y1="202" x2="89" y2="202" stroke="#4393c3" stroke-width="1"/>
	</g>
	<text x="30" y="194.7" fill="#000000" font-family="Verdana" font-size="12">Pièces</text>
	<text x="14" y="219.7" fill="#000000" font-family="Verdana" font-size="12">code_pièce</text>
	<line x1="14" y1="222" x2="82" y2="222" stroke="#000000" stroke-width="1"/>
	<text x="14" y="236.8" fill="#000000" font-family="Verdana" font-size="12">état</text>
	<text x="14" y="253.8" fill="#000000" font-family="Verdana" font-size="12">date_récup</text>
	<text x="14" y="270.8" fill="#000000" font-family="Verdana" font-size="12">...</text>
</g>

<!-- Entity Types_pièce -->
<g id="entity-Types_pièce">
	<g id="frame-Types_pièce">
		<rect x="245" y="177" width="112" height="25" fill="#92c5de" stroke="#92c5de" stroke-width="0"/>
		<rect x="245" y="202.0" width="112" height="77" fill="#d1e5f0" stroke="#d1e5f0" stroke-width="0"/>
		<rect x="245" y="177" width="112" height="102" fill="none" stroke="#4393c3" stroke-width="2"/>
		<line x1="245" y1="202" x2="357" y2="202" stroke="#4393c3" stroke-width="1"/>
	</g>
	<text x="263" y="194.7" fill="#000000" font-family="Verdana" font-size="12">Types_pièce</text>
	<text x="250" y="219.7" fill="#000000" font-family="Verdana" font-size="12">code_type_pièce</text>
	<line x1="250" y1="222" x2="352" y2="222" stroke="#000000" stroke-width="1"/>
	<text x="250" y="236.8" fill="#000000" font-family="Verdana" font-size="12">ref_constructeur</text>
	<text x="250" y="253.8" fill="#000000" font-family="Verdana" font-size="12">prix</text>
	<text x="250" y="270.8" fill="#000000" font-family="Verdana" font-size="12">...</text>
</g>
</svg>